<svg width="74" height="72" viewBox="0 0 74 72" fill="none" xmlns="http://www.w3.org/2000/svg">
<g clip-path="url(#clip0_1_34)">
<rect x="2" y="18" width="11" height="50" fill="#0A3E69"/>
<rect x="7" y="57" width="23" height="11" fill="#0A3F69"/>
<path d="M2 2H39V14H2V2Z" fill="#FAB500"/>
<rect x="21" y="38" width="9" height="15" fill="#F9B500"/>
<rect x="21" y="31" width="18" height="10" fill="#F9B400"/>
<path d="M35.9763 12.2679C31.1832 9.36886 33.2383 2 38.84 2H40.172C50.9416 2 59.672 10.7304 59.672 21.5C59.672 32.2696 50.9416 41 40.172 41H38.84C33.8704 41 32.279 34.307 36.7168 32.0702L37.9521 31.4475C38.5384 31.152 39.1867 30.973 39.8412 30.922C49.4957 30.1696 50.8658 16.2492 41.3471 14.4689L39.9381 14.2054C39.212 14.0696 38.5162 13.8042 37.8841 13.4219L35.9763 12.2679Z" fill="#F9B400"/>
<path d="M39.16 65.248H39.608V68H31.688V67.552L32.568 67.44C32.7387 67.4187 32.84 67.376 32.872 67.312C32.904 67.2373 32.92 67.0187 32.92 66.656V58.464C32.92 58.1013 32.904 57.888 32.872 57.824C32.84 57.7493 32.7387 57.7013 32.568 57.68L31.688 57.568V57.12H39.448V59.872H39L38.488 58.096C38.456 57.968 38.4187 57.8773 38.376 57.824C38.344 57.76 38.2747 57.7227 38.168 57.712C38.0613 57.6907 37.88 57.68 37.624 57.68H34.84V62.224H36.664C36.92 62.224 37.1013 62.2187 37.208 62.208C37.3147 62.1867 37.384 62.1493 37.416 62.096C37.4587 62.032 37.496 61.936 37.528 61.808L37.88 60.512H38.328V64.496H37.88L37.528 63.2C37.496 63.072 37.4587 62.9813 37.416 62.928C37.384 62.864 37.3147 62.8267 37.208 62.816C37.1013 62.7947 36.92 62.784 36.664 62.784H34.84V67.44H37.784C38.04 67.44 38.2213 67.4347 38.328 67.424C38.4347 67.4027 38.504 67.3653 38.536 67.312C38.5787 67.248 38.616 67.152 38.648 67.024L39.16 65.248ZM43.6326 67.552V68H40.5446V67.552L41.4246 67.44C41.542 67.4187 41.6273 67.3973 41.6806 67.376C41.734 67.344 41.782 67.2747 41.8246 67.168C41.8673 67.0613 41.926 66.8907 42.0006 66.656L45.0566 57.12H46.4326L49.5046 66.656C49.5793 66.8907 49.638 67.0613 49.6806 67.168C49.7233 67.2747 49.7713 67.344 49.8246 67.376C49.8886 67.3973 49.974 67.4187 50.0806 67.44L50.9606 67.552V68H46.5446V67.552L47.4246 67.44C47.5953 67.4187 47.686 67.376 47.6966 67.312C47.718 67.2373 47.67 67.0187 47.5526 66.656L46.9446 64.672H43.2486L42.6246 66.656C42.518 67.0187 42.47 67.2373 42.4806 67.312C42.4913 67.376 42.582 67.4187 42.7526 67.44L43.6326 67.552ZM43.4406 64.112H46.7686L45.1206 58.8L43.4406 64.112ZM51.5474 57.568V57.12H56.3794C57.4994 57.12 58.3634 57.3707 58.9714 57.872C59.5794 58.3733 59.8834 59.0453 59.8834 59.888V60.256C59.8834 60.896 59.7074 61.44 59.3554 61.888C59.0034 62.336 58.4967 62.656 57.8354 62.848L59.8354 66.656C59.9634 66.8907 60.0594 67.0613 60.1234 67.168C60.1874 67.2747 60.246 67.344 60.2994 67.376C60.3634 67.3973 60.4487 67.4187 60.5554 67.44L61.2754 67.552V68H58.2834L55.8674 63.04H54.6994V66.656C54.6994 67.0187 54.7154 67.2373 54.7474 67.312C54.7794 67.376 54.8807 67.4187 55.0514 67.44L55.9314 67.552V68H51.5474V67.552L52.4274 67.44C52.598 67.4187 52.6994 67.376 52.7314 67.312C52.7634 67.2373 52.7794 67.0187 52.7794 66.656V58.464C52.7794 58.1013 52.7634 57.888 52.7314 57.824C52.6994 57.7493 52.598 57.7013 52.4274 57.68L51.5474 57.568ZM56.3794 57.68H54.6994V62.48H56.3794C56.8487 62.48 57.206 62.336 57.4514 62.048C57.7074 61.7493 57.8354 61.2053 57.8354 60.416V59.728C57.8354 58.9387 57.7074 58.4 57.4514 58.112C57.206 57.824 56.8487 57.68 56.3794 57.68ZM68.7213 57.568V57.12H71.8253V57.568L70.9453 57.68C70.7746 57.7013 70.6733 57.7493 70.6413 57.824C70.6093 57.888 70.5933 58.1013 70.5933 58.464V68H69.7133L63.8413 58.512V66.656C63.8413 67.0187 63.8573 67.2373 63.8893 67.312C63.9213 67.376 64.0226 67.4187 64.1933 67.44L65.0733 67.552V68H61.9693V67.552L62.8493 67.44C63.0199 67.4187 63.1213 67.376 63.1533 67.312C63.1853 67.2373 63.2013 67.0187 63.2013 66.656V58.464C63.2013 58.1013 63.1853 57.888 63.1533 57.824C63.1213 57.7493 63.0199 57.7013 62.8493 57.68L61.9693 57.568V57.12H65.1853L69.9533 64.784V58.464C69.9533 58.1013 69.9373 57.888 69.9053 57.824C69.8733 57.7493 69.7719 57.7013 69.6013 57.68L68.7213 57.568Z" fill="#FAB400"/>
<path d="M31.688 42.568V42.12H36.52C37.64 42.12 38.504 42.3707 39.112 42.872C39.72 43.3733 40.024 44.0453 40.024 44.888V45.256C40.024 45.896 39.848 46.44 39.496 46.888C39.144 47.336 38.6373 47.656 37.976 47.848L39.976 51.656C40.104 51.8907 40.2 52.0613 40.264 52.168C40.328 52.2747 40.3867 52.344 40.44 52.376C40.504 52.3973 40.5893 52.4187 40.696 52.44L41.416 52.552V53H38.424L36.008 48.04H34.84V51.656C34.84 52.0187 34.856 52.2373 34.888 52.312C34.92 52.376 35.0213 52.4187 35.192 52.44L36.072 52.552V53H31.688V52.552L32.568 52.44C32.7387 52.4187 32.84 52.376 32.872 52.312C32.904 52.2373 32.92 52.0187 32.92 51.656V43.464C32.92 43.1013 32.904 42.888 32.872 42.824C32.84 42.7493 32.7387 42.7013 32.568 42.68L31.688 42.568ZM36.52 42.68H34.84V47.48H36.52C36.9893 47.48 37.3467 47.336 37.592 47.048C37.848 46.7493 37.976 46.2053 37.976 45.416V44.728C37.976 43.9387 37.848 43.4 37.592 43.112C37.3467 42.824 36.9893 42.68 36.52 42.68ZM49.5819 50.248H50.0299V53H42.1099V52.552L42.9899 52.44C43.1605 52.4187 43.2619 52.376 43.2939 52.312C43.3259 52.2373 43.3419 52.0187 43.3419 51.656V43.464C43.3419 43.1013 43.3259 42.888 43.2939 42.824C43.2619 42.7493 43.1605 42.7013 42.9899 42.68L42.1099 42.568V42.12H49.8699V44.872H49.4219L48.9099 43.096C48.8779 42.968 48.8405 42.8773 48.7979 42.824C48.7659 42.76 48.6965 42.7227 48.5899 42.712C48.4832 42.6907 48.3019 42.68 48.0459 42.68H45.2619V47.224H47.0859C47.3419 47.224 47.5232 47.2187 47.6299 47.208C47.7365 47.1867 47.8059 47.1493 47.8379 47.096C47.8805 47.032 47.9179 46.936 47.9499 46.808L48.3019 45.512H48.7499V49.496H48.3019L47.9499 48.2C47.9179 48.072 47.8805 47.9813 47.8379 47.928C47.8059 47.864 47.7365 47.8267 47.6299 47.816C47.5232 47.7947 47.3419 47.784 47.0859 47.784H45.2619V52.44H48.2059C48.4619 52.44 48.6432 52.4347 48.7499 52.424C48.8565 52.4027 48.9259 52.3653 48.9579 52.312C49.0005 52.248 49.0379 52.152 49.0699 52.024L49.5819 50.248Z" fill="#0A3E69"/>
</g>
<defs>
<clipPath id="clip0_1_34">
<rect width="74" height="72" fill="white"/>
</clipPath>
</defs>
</svg>
